<?xml version="1.0" encoding="UTF-8"?>
<svg xmlns="http://www.w3.org/2000/svg" shape-rendering="crispEdges" viewBox="0 -0.5 39 39">

<path d="M15 0h6M24 0h3M15 1h6M24 1h3M15 2h6M24 2h3M9 3h6M9 4h6M9 5h6M6 6h3M6 7h3M6 8h3M6 9h3M36 9h3M6 10h3M36 10h3M6 11h3M36 11h3M0 12h6M36 12h3M0 13h6M36 13h3M0 14h6M36 14h3M0 15h3M12 15h3M33 15h3M0 16h3M12 16h3M33 16h3M0 17h3M12 17h3M33 17h3M3 18h3M9 18h3M15 18h3M36 18h3M3 19h3M9 19h3M15 19h3M36 19h3M3 20h3M9 20h3M15 20h3M36 20h3M0 21h3M9 21h3M18 21h9M33 21h3M0 22h3M9 22h3M18 22h9M33 22h3M0 23h3M9 23h3M18 23h9M33 23h3M0 24h3M6 24h3M27 24h3M33 24h3M0 25h3M6 25h3M27 25h3M33 25h3M0 26h3M6 26h3M27 26h3M33 26h3M3 27h3M30 27h3M3 28h3M30 28h3M3 29h3M30 29h3M3 30h3M3 31h3M3 32h3" stroke="#381405"/>
<path d="M21 0h3M21 1h3M21 2h3M27 3h9M27 4h9M27 5h9M9 6h3M30 6h3M9 7h3M30 7h3M9 8h3M30 8h3M9 9h9M33 9h3M9 10h9M33 10h3M9 11h9M33 11h3M6 12h3M12 12h3M6 13h3M12 13h3M6 14h3M12 14h3M9 15h3M15 15h3M9 16h3M15 16h3M9 17h3M15 17h3M6 18h3M18 18h6M6 19h3M18 19h6M6 20h3M18 20h6M6 21h3M27 21h3M6 22h3M27 22h3M6 23h3M27 23h3M6 27h3M6 28h3M6 29h3" stroke="#501d07"/>
<path d="M15 3h3M24 3h3M15 4h3M24 4h3M15 5h3M24 5h3M12 6h3M12 7h3M12 8h3M18 9h6M18 10h6M18 11h6M9 12h3M15 12h3M9 13h3M15 13h3M9 14h3M15 14h3M6 15h3M18 15h3M6 16h3M18 16h3M6 17h3M18 17h3M24 18h3M24 19h3M24 20h3M3 21h3M3 22h3M3 23h3M30 24h3M30 25h3M30 26h3" stroke="#6d2709"/>
<path d="M18 3h6M18 4h6M18 5h6M15 6h3M27 6h3M15 7h3M27 7h3M15 8h3M27 8h3M24 9h3M30 9h3M24 10h3M30 10h3M24 11h3M30 11h3M18 12h3M24 12h6M18 13h3M24 13h6M18 14h3M24 14h6M3 15h3M21 15h3M30 15h3M3 16h3M21 16h3M30 16h3M3 17h3M21 17h3M30 17h3M27 18h3M27 19h3M27 20h3M30 21h3M30 22h3M30 23h3M3 24h3M3 25h3M3 26h3" stroke="#a33b0e"/>
<path d="M18 6h3M18 7h3M18 8h3M27 9h3M27 10h3M27 11h3M21 12h3M30 12h6M21 13h3M30 13h6M21 14h3M30 14h6M33 18h3M33 19h3M33 20h3" stroke="#d64d13"/>
<path d="M21 6h6M21 7h6M21 8h6M24 15h6M24 16h6M24 17h6M30 18h3M30 19h3M30 20h3" stroke="#fb5b16"/>
<path d="M12 18h3M12 19h3M12 20h3" stroke="#a44641"/>
<path d="M12 21h6M12 22h6M12 23h6M6 30h3M27 30h3M6 31h3M27 31h3M6 32h3M27 32h3M15 36h6M15 37h6M15 38h6" stroke="#e06b65"/>
<path d="M9 24h6M21 24h6M9 25h6M21 25h6M9 26h6M21 26h6M27 27h3M27 28h3M27 29h3" stroke="#0f0a08"/>
<path d="M15 24h6M15 25h6M15 26h6M15 27h6M15 28h6M15 29h6M15 30h6M15 31h6M15 32h6M9 33h18M9 34h18M9 35h18" stroke="#f9ae89"/>
<path d="M9 27h3M24 27h3M9 28h3M24 28h3M9 29h3M24 29h3" stroke="#bea8a8"/>
<path d="M12 27h3M21 27h3M12 28h3M21 28h3M12 29h3M21 29h3M12 30h3M21 30h3M12 31h3M21 31h3M12 32h3M21 32h3" stroke="#ad4a4a"/>
<path d="M9 30h3M24 30h3M9 31h3M24 31h3M9 32h3M24 32h3" stroke="#fffdfc"/>
<path d="M30 30h3M30 31h3M30 32h3M6 33h3M27 33h3M6 34h3M27 34h3M6 35h3M27 35h3M10 36h5M21 36h6M10 37h5M21 37h6M10 38h5M21 38h6" stroke="#6b003a"/>
</svg>