<?xml version="1.0" encoding="UTF-8"?>
<svg xmlns="http://www.w3.org/2000/svg" shape-rendering="crispEdges" viewBox="0 -0.5 32 44">
<path d="M8 0h8M8 1h8M8 2h8M8 3h8M4 4h4M4 5h4M4 6h4M4 7h4M0 8h4M0 9h4M0 10h4M0 11h4M0 12h4M0 13h4M0 14h4M0 15h4M0 16h8M28 16h4M0 17h8M28 17h4M0 18h8M28 18h4M0 19h8M28 19h4M0 20h4M8 20h8M20 20h4M28 20h4M0 21h4M8 21h8M20 21h4M28 21h4M0 22h4M8 22h8M20 22h4M28 22h4M0 23h4M8 23h8M20 23h4M28 23h4M0 24h4M28 24h4M0 25h4M28 25h4M0 26h4M28 26h4M0 27h4M28 27h4M0 28h4M28 28h4M0 29h4M28 29h4M0 30h4M28 30h4M0 31h4M28 31h4M0 32h4M28 32h4M0 33h4M28 33h4M0 34h4M28 34h4M0 35h4M28 35h4M4 36h4M24 36h4M4 37h4M24 37h4M4 38h4M24 38h4M4 39h4M24 39h4M8 40h16M8 41h16M8 42h16M8 43h16" stroke="#63003e"/>
<path d="M16 0h8M16 1h8M16 2h8M16 3h8M8 4h4M24 4h4M8 5h4M24 5h4M8 6h4M24 6h4M8 7h4M24 7h4M4 8h4M28 8h4M4 9h4M28 9h4M4 10h4M28 10h4M4 11h4M28 11h4M4 12h4M28 12h4M4 13h4M28 13h4M4 14h4M28 14h4M4 15h4M28 15h4M24 16h4M24 17h4M24 18h4M24 19h4M4 20h4M24 20h4M4 21h4M24 21h4M4 22h4M24 22h4M4 23h4M24 23h4M4 24h12M20 24h4M4 25h12M20 25h4M4 26h12M20 26h4M4 27h12M20 27h4M4 28h4M12 28h8M4 29h4M12 29h8M4 30h4M12 30h8M4 31h4M12 31h8M4 32h4M4 33h4M4 34h4M4 35h4M8 36h4M8 37h4M8 38h4M8 39h4" stroke="#960027"/>
<path d="M12 4h4M12 5h4M12 6h4M12 7h4M8 8h12M8 9h12M8 10h12M8 11h12M8 12h4M24 12h4M8 13h4M24 13h4M8 14h4M24 14h4M8 15h4M24 15h4M8 16h16M8 17h16M8 18h16M8 19h16M24 24h4M24 25h4M24 26h4M24 27h4M8 28h4M20 28h4M8 29h4M20 29h4M8 30h4M20 30h4M8 31h4M20 31h4M8 32h8M24 32h4M8 33h8M24 33h4M8 34h8M24 34h4M8 35h8M24 35h4M12 36h12M12 37h12M12 38h12M12 39h12" stroke="#dd003b"/>
<path d="M16 4h8M16 5h8M16 6h8M16 7h8M20 8h8M20 9h8M20 10h8M20 11h8M12 12h12M12 13h12M12 14h12M12 15h12M24 28h4M24 29h4M24 30h4M24 31h4M16 32h8M16 33h8M16 34h8M16 35h8" stroke="#ff6948"/>
<path d="M16 20h4M16 21h4M16 22h4M16 23h4" stroke="#fff000"/>
<path d="M16 24h4M16 25h4M16 26h4M16 27h4" stroke="#d19700"/>
</svg>