<?xml version="1.0" encoding="UTF-8"?>
<svg xmlns="http://www.w3.org/2000/svg" shape-rendering="crispEdges" viewBox="0 -0.5 28 32">

<path d="M0 0h4M12 0h4M24 0h4M0 1h4M12 1h4M24 1h4M0 2h4M12 2h4M24 2h4M0 3h4M12 3h4M24 3h4M0 20h4M24 20h4M0 21h4M24 21h4M0 22h4M24 22h4M0 23h4M24 23h4M4 24h4M20 24h4M4 25h4M20 25h4M4 26h4M20 26h4M4 27h4M20 27h4M8 28h4M16 28h4M8 29h4M16 29h4M8 30h4M16 30h4M8 31h4M16 31h4" stroke="#e4ae6e"/>
<path d="M4 0h8M16 0h8M4 1h8M16 1h8M4 2h8M16 2h8M4 3h8M16 3h8M0 4h4M12 4h4M24 4h4M0 5h4M12 5h4M24 5h4M0 6h4M12 6h4M24 6h4M0 7h4M12 7h4M24 7h4M0 8h4M24 8h4M0 9h4M24 9h4M0 10h4M24 10h4M0 11h4M24 11h4M0 12h4M24 12h4M0 13h4M24 13h4M0 14h4M24 14h4M0 15h4M24 15h4M0 16h4M24 16h4M0 17h4M24 17h4M0 18h4M24 18h4M0 19h4M24 19h4M4 20h4M20 20h4M4 21h4M20 21h4M4 22h4M20 22h4M4 23h4M20 23h4M8 24h4M16 24h4M8 25h4M16 25h4M8 26h4M16 26h4M8 27h4M16 27h4M12 28h4M12 29h4M12 30h4M12 31h4" stroke="#63003e"/>
<path d="M4 4h4M16 4h4M4 5h4M16 5h4M4 6h4M16 6h4M4 7h4M16 7h4M4 8h20M4 9h20M4 10h20M4 11h20M4 12h20M4 13h20M4 14h20M4 15h20M4 16h20M4 17h20M4 18h20M4 19h20M8 20h12M8 21h12M8 22h12M8 23h12M12 24h4M12 25h4M12 26h4M12 27h4" stroke="#dd003b"/>
<path d="M8 4h4M20 4h4M8 5h4M20 5h4M8 6h4M20 6h4M8 7h4M20 7h4" stroke="#ff6948"/>
</svg>