<?xml version="1.0" encoding="UTF-8"?>
<svg xmlns="http://www.w3.org/2000/svg" shape-rendering="crispEdges" viewBox="0 -0.5 32 40">

<path d="M0 0h4M28 0h4M0 1h4M28 1h4M0 2h4M28 2h4M0 3h4M28 3h4M0 36h4M28 36h4M0 37h4M28 37h4M0 38h4M28 38h4M0 39h4M28 39h3" stroke="#f7e3c8"/>
<path d="M4 0h24M4 1h24M4 2h24M4 3h24M0 4h4M28 4h4M0 5h4M28 5h4M0 6h4M28 6h4M0 7h4M28 7h4M0 8h4M28 8h4M0 9h4M28 9h4M0 10h4M28 10h4M0 11h4M28 11h4M0 12h4M28 12h4M0 13h4M28 13h4M0 14h4M28 14h4M0 15h4M28 15h4M0 16h4M28 16h4M0 17h4M28 17h4M0 18h4M28 18h4M0 19h4M28 19h4M0 20h4M28 20h4M0 21h4M28 21h4M0 22h4M28 22h4M0 23h4M28 23h4M0 24h4M28 24h4M0 25h4M28 25h4M0 26h4M28 26h4M0 27h4M28 27h4M0 28h4M28 28h4M0 29h4M28 29h4M0 30h4M28 30h4M0 31h4M28 31h4M0 32h4M28 32h4M0 33h4M28 33h4M0 34h4M28 34h4M0 35h4M28 35h4M4 36h24M4 37h24M4 38h24M4 39h24" stroke="#fffae4"/>
<path d="M4 4h4M24 4h4M4 5h4M24 5h4M4 6h4M24 6h4M4 7h4M24 7h4M4 32h4M24 32h4M4 33h4M24 33h4M4 34h4M24 34h4M4 35h4M24 35h4" stroke="#c4a993"/>
<path d="M8 4h8M8 5h8M8 6h8M8 7h8M8 8h8M20 8h4M8 9h8M20 9h4M8 10h8M20 10h4M8 11h8M20 11h4M8 12h4M16 12h4M24 12h4M8 13h4M16 13h4M24 13h4M8 14h4M16 14h4M24 14h4M8 15h4M16 15h4M24 15h4M4 16h8M16 16h12M4 17h8M16 17h12M4 18h8M16 18h12M4 19h8M16 19h12M4 20h4M16 20h12M4 21h4M16 21h12M4 22h4M16 22h12M4 23h4M16 23h12M16 24h8M16 25h8M16 26h8M16 27h8M12 28h4M12 29h4M12 30h4M12 31h4" stroke="#528e19"/>
<path d="M16 4h4M16 5h4M16 6h4M16 7h4M16 8h4M16 9h4M16 10h4M16 11h4M12 12h4M12 13h4M12 14h4M12 15h4M8 20h4M8 21h4M8 22h4M8 23h4M4 24h4M12 24h4M24 24h4M4 25h4M12 25h4M24 25h4M4 26h4M12 26h4M24 26h4M4 27h4M12 27h4M24 27h4M16 28h12M16 29h12M16 30h12M16 31h12" stroke="#3169bc"/>
<path d="M20 4h4M20 5h4M20 6h4M20 7h4M4 8h4M24 8h4M4 9h4M24 9h4M4 10h4M24 10h4M4 11h4M24 11h4M4 12h4M20 12h4M4 13h4M20 13h4M4 14h4M20 14h4M4 15h4M20 15h4" stroke="#236111"/>
<path d="M12 16h4M12 17h4M12 18h4M12 19h4M12 20h4M12 21h4M12 22h4M12 23h4M8 24h4M8 25h4M8 26h4M8 27h4M4 28h8M4 29h8M4 30h8M4 31h8M8 32h16M8 33h16M8 34h16M8 35h16" stroke="#42a7f7"/>
<path d="M31 39h1" stroke="rgba(247,227,200,0.996078431372549)"/>
</svg>