<?xml version="1.0" encoding="UTF-8"?>
<svg xmlns="http://www.w3.org/2000/svg" shape-rendering="crispEdges" viewBox="0 -0.5 32 40">

<path d="M0 0h4M16 0h12M0 1h4M16 1h12M0 2h4M16 2h12M0 3h4M16 3h12M4 4h8M28 4h4M4 5h8M28 5h4M4 6h8M28 6h4M4 7h8M28 7h4M12 8h8M28 8h4M12 9h8M28 9h4M12 10h8M28 10h4M12 11h8M28 11h4M8 12h4M28 12h4M8 13h4M28 13h4M8 14h4M28 14h4M8 15h4M28 15h4" stroke="#3d3d3d"/>
<path d="M4 0h4M4 1h4M4 2h4M4 3h4M4 12h4M24 12h4M4 13h4M24 13h4M4 14h4M24 14h4M4 15h4M24 15h4M8 16h4M8 17h4M8 18h4M8 19h4" stroke="#e4ae6e"/>
<path d="M8 0h8M8 1h8M8 2h8M8 3h8M0 4h4M0 5h4M0 6h4M0 7h4M0 8h12M24 8h4M0 9h12M24 9h4M0 10h12M24 10h4M0 11h12M24 11h4M0 12h4M0 13h4M0 14h4M0 15h4" stroke="#212121"/>
<path d="M12 4h4M24 4h4M12 5h4M24 5h4M12 6h4M24 6h4M12 7h4M24 7h4M20 8h4M20 9h4M20 10h4M20 11h4" stroke="#6b6b6b"/>
<path d="M16 4h8M16 5h8M16 6h8M16 7h8" stroke="#a0a0a0"/>
<path d="M12 12h4M20 12h4M12 13h4M20 13h4M12 14h4M20 14h4M12 15h4M20 15h4M12 16h4M12 17h4M12 18h4M12 19h4M12 20h4M12 21h4M12 22h4M12 23h4M12 24h4M12 25h4M12 26h4M12 27h4M12 28h4M12 29h4M12 30h4M12 31h4M12 32h4M20 32h4M12 33h4M20 33h4M12 34h4M20 34h4M12 35h4M20 35h4M12 36h8M12 37h8M12 38h8M12 39h8" stroke="#210f02"/>
<path d="M16 12h4M16 13h4M16 14h4M16 15h4M20 16h4M20 17h4M20 18h4M20 19h4M20 20h4M20 21h4M20 22h4M20 23h4M20 24h4M20 25h4M20 26h4M20 27h4M20 28h4M20 29h4M20 30h4M20 31h4M16 32h4M16 33h4M16 34h4M16 35h4" stroke="#492005"/>
<path d="M16 16h4M16 17h4M16 18h4M16 19h4M16 24h4M16 25h4M16 26h4M16 27h4M16 28h4M16 29h4M16 30h4M16 31h4" stroke="#6b3007"/>
<path d="M16 20h4M16 21h4M16 22h4M16 23h4" stroke="#8e4109"/>
</svg>